<?xml version="1.0" encoding="UTF-8" standalone="no"?>
<svg
   xmlns:dc="http://purl.org/dc/elements/1.1/"
   xmlns:cc="http://creativecommons.org/ns#"
   xmlns:rdf="http://www.w3.org/1999/02/22-rdf-syntax-ns#"
   xmlns:svg="http://www.w3.org/2000/svg"
   xmlns="http://www.w3.org/2000/svg"
   xmlns:sodipodi="http://sodipodi.sourceforge.net/DTD/sodipodi-0.dtd"
   xmlns:inkscape="http://www.inkscape.org/namespaces/inkscape"
   viewBox="0 0 32 32"
   version="1.1"
   id="svg16"
   sodipodi:docname="plugin-icon.svg"
   inkscape:version="1.0.2 (e86c870879, 2021-01-15)">
  <metadata
     id="metadata20">
    <rdf:RDF>
      <cc:Work
         rdf:about="">
        <dc:format>image/svg+xml</dc:format>
        <dc:type
           rdf:resource="http://purl.org/dc/dcmitype/StillImage" />
        <dc:title></dc:title>
      </cc:Work>
    </rdf:RDF>
  </metadata>
  <sodipodi:namedview
     pagecolor="#ffffff"
     bordercolor="#666666"
     borderopacity="1"
     objecttolerance="10"
     gridtolerance="10"
     guidetolerance="10"
     inkscape:pageopacity="0"
     inkscape:pageshadow="2"
     inkscape:window-width="1680"
     inkscape:window-height="999"
     id="namedview18"
     showgrid="false"
     showguides="true"
     inkscape:guide-bbox="true"
     inkscape:zoom="22.96875"
     inkscape:cx="16"
     inkscape:cy="6.9453775"
     inkscape:window-x="0"
     inkscape:window-y="27"
     inkscape:window-maximized="1"
     inkscape:current-layer="svg16">
    <sodipodi:guide
       position="3.6136054,30.389116"
       orientation="0,-1"
       id="guide881" />
  </sodipodi:namedview>
  <defs
     id="defs4">
    <style
       id="style2">.cls-1{fill:none;}</style>
  </defs>
  <g
     id="frame">
    <rect
       class="cls-1"
       height="32"
       width="32"
       id="rect13" />
  </g>
  <path
     style="fill:#0000ff;stroke:#ffffff;stroke-width:0.0236608"
     d="M 8.34202,15.716992 C 5.7830076,15.605226 3.4645651,14.092009 2.3304179,11.7933 1.9520317,11.02638 1.7243013,10.235111 1.6324251,9.368065 1.5863324,8.933083 1.5982411,8.1681209 1.657824,7.7365536 1.9394555,5.6966571 3.0644967,3.9101043 4.7810652,2.776883 c 2.3371891,-1.5429347 5.3964188,-1.54284 7.7370908,2.396e-4 0.732689,0.4830219 1.385695,1.1114426 1.876743,1.8060821 0.669824,0.9475402 1.08663,2.0058208 1.250842,3.1759237 0.06301,0.4490047 0.05783,1.4605146 -0.0097,1.8931626 -0.07233,0.463402 -0.161278,0.839381 -0.292297,1.235587 -0.833602,2.520836 -3.030784,4.366338 -5.668263,4.761002 -0.25277,0.03783 -0.9242804,0.08691 -1.0850174,0.0793 -0.052052,-0.0024 -0.1638508,-0.0075 -0.2484381,-0.01119 z m 0.993755,-1.099064 c 1.35092,-0.148089 2.712647,-0.827616 3.655136,-1.823981 0.715544,-0.756447 1.238075,-1.719915 1.479454,-2.727888 0.125171,-0.522706 0.15276,-0.77499 0.152658,-1.395989 -9.5e-5,-0.6414421 -0.0314,-0.9131176 -0.168341,-1.4612347 C 14.094808,5.7683628 13.227911,4.537028 11.985788,3.7020333 11.1774,3.1586097 10.3132,2.8390302 9.323944,2.7176888 9.0230366,2.6807796 8.306643,2.6802437 7.9989378,2.7166975 6.5797233,2.8848316 5.2619838,3.5380511 4.3082962,4.546193 3.4524215,5.4509373 2.9132539,6.5643486 2.718065,7.8301107 2.658776,8.2145894 2.65907,9.128864 2.7186057,9.510029 c 0.2062325,1.320364 0.7709958,2.456033 1.671777,3.361734 0.1628216,0.163711 0.3864027,0.369851 0.4968471,0.458088 1.2622936,1.008485 2.8377374,1.464655 4.4485452,1.288077 z"
     id="path845"
     inkscape:export-xdpi="210.43579"
     inkscape:export-ydpi="210.43579" />
  <path
     style="fill:#0000ff;stroke:#ffffff;stroke-width:0.0236608"
     d="m 23.605783,15.70781 c -2.559012,-0.111766 -4.877455,-1.624983 -6.011602,-3.923692 -0.378386,-0.76692 -0.606116,-1.558189 -0.697993,-2.4252355 -0.04609,-0.434982 -0.03418,-1.199944 0.0254,-1.631511 0.281632,-2.039896 1.406673,-3.826449 3.123241,-4.959671 2.337189,-1.542934 5.396419,-1.54284 7.737091,2.4e-4 0.732689,0.483022 1.385695,1.111443 1.876743,1.806082 0.669824,0.94754 1.08663,2.005821 1.250842,3.175924 0.06301,0.449004 0.05783,1.460514 -0.0097,1.893162 -0.07233,0.4634025 -0.161278,0.8393815 -0.292297,1.2355875 -0.833602,2.520836 -3.030784,4.366338 -5.668263,4.761002 -0.25277,0.03783 -0.92428,0.08691 -1.085017,0.0793 -0.05205,-0.0024 -0.163851,-0.0075 -0.248438,-0.01119 z m 0.993755,-1.099064 c 1.35092,-0.148089 2.712647,-0.827616 3.655136,-1.823981 0.715544,-0.756447 1.238075,-1.719915 1.479454,-2.727888 0.125171,-0.5227065 0.15276,-0.7749905 0.152658,-1.3959895 -9.5e-5,-0.641442 -0.0314,-0.913117 -0.168341,-1.461234 -0.359874,-1.440473 -1.226771,-2.671808 -2.468894,-3.506802 -0.808388,-0.543424 -1.672588,-0.863003 -2.661844,-0.984345 -0.300907,-0.03691 -1.017301,-0.03745 -1.325006,-9.91e-4 -1.419215,0.168134 -2.736954,0.821353 -3.690642,1.829495 -0.855874,0.904745 -1.395042,2.018156 -1.590231,3.283918 -0.05929,0.384479 -0.05899,1.298753 5.41e-4,1.679918 0.206232,1.3203645 0.770996,2.4560335 1.671777,3.3617345 0.162821,0.163711 0.386403,0.369851 0.496847,0.458088 1.262294,1.008485 2.837737,1.464655 4.448545,1.288077 z"
     id="path845-3"
     inkscape:export-xdpi="210.43579"
     inkscape:export-ydpi="210.43579" />
  <path
     style="fill:#999999;stroke:#ffffff;stroke-width:0.0435374"
     d="m 23.208073,14.587862 c -1.3965,-0.194633 -2.546306,-0.757796 -3.506568,-1.717477 -0.858338,-0.857821 -1.398907,-1.875494 -1.654346,-3.1144675 -0.102915,-0.499171 -0.1059,-1.65853 -0.0056,-2.176871 0.350828,-1.813157 1.536865,-3.403006 3.142031,-4.211802 0.509603,-0.256774 0.850207,-0.383144 1.413047,-0.524266 0.414194,-0.103852 0.539912,-0.11526 1.286272,-0.116727 0.712122,-0.0014 0.890813,0.01256 1.284354,0.100308 2.019382,0.450283 3.645189,1.865767 4.350669,3.787841 0.262747,0.715854 0.323667,1.086445 0.326762,1.987776 0.0031,0.914638 -0.03321,1.177111 -0.259631,1.8748595 -0.510228,1.572309 -1.645145,2.870263 -3.116024,3.563659 -0.470694,0.221893 -0.970864,0.390368 -1.435123,0.4834 -0.400573,0.08027 -1.445567,0.116766 -1.825836,0.06377 z"
     id="path877"
     inkscape:export-xdpi="210.43579"
     inkscape:export-ydpi="210.43579" />
</svg>
